<svg xmlns="http://www.w3.org/2000/svg" viewBox="0 0 381.38 168.67"><title>logo-ecommerce</title><g id="Capa_2" data-name="Capa 2"><g id="Capa_1-2" data-name="Capa 1"><path d="M110.78,97.69h4.48c32,0,64,0,96,.07a6.15,6.15,0,0,0,6.16-3.56c17-29.6,34.07-59.1,51-88.73C270.58,1.61,272.88,0,277.61,0c33,.27,66,.14,99,.14h4.78v31.4h-4.19c-27.5,0-55,.09-82.5-.1-3.8,0-5.74,1.22-7.56,4.42-14.83,26.06-29.84,52-44.81,78-2.36,4.11-4.89,8.14-7.11,12.32-1.29,2.43-3,3.17-5.69,3.16-20.75-.14-41.49-.15-62.24-.18-11.75,0-23.5-.06-35.24.05-2.38,0-3.82-.54-5-2.76-4.76-8.65-9.78-17.15-14.69-25.71C111.83,99.93,111.45,99.05,110.78,97.69Z" style="fill:#fff"/><path d="M0,.14H4.06q40.5,0,81,0c2.09,0,3.66.16,4.91,2.35q21.39,37.43,43,74.71c.47.83.83,1.72,1.5,3.1H82.5l28.12,48.89h-9.44c-7.62,0-15.25-.13-22.87.07-2.87.08-4.41-.83-5.86-3.36Q41.19,71.45,9.71,17.14C6.6,11.74,3.53,6.32,0,.14ZM54.35,31.56c3.46,6,6.48,11.23,9.55,16.46a1.71,1.71,0,0,0,1.18.78c5.49.05,11,0,17.2,0C78.91,43,76.05,37.89,73,32.9a3.3,3.3,0,0,0-2.41-1.29C65.53,31.5,60.43,31.56,54.35,31.56Z" style="fill:#fff"/><path d="M214.8.43c-1.72,3-3.2,5.5-4.67,8.05-3.93,6.82-7.75,13.71-11.88,20.4A6,6,0,0,1,194,31.43q-32.25.24-64.49,0c-1.36,0-3.35-.76-4-1.81-5.72-9.51-11.21-19.16-17-29.22Z" style="fill:#fff"/><path d="M186.67,49.21c-5.94,10.27-11.5,20-17.2,29.67-1.32,2.23-14.3,2.22-15.62,0-5.72-9.66-11.3-19.4-17.25-29.67Z" style="fill:#fff"/><path d="M219,152.85a16.05,16.05,0,1,1-16.1-16.21A16.08,16.08,0,0,1,219,152.85Z" style="fill:#fff"/><path d="M88.94,152.84a15.82,15.82,0,0,1,15.66-16.2,16.16,16.16,0,0,1,16.37,16c.12,8.55-7.27,16-16,16A15.84,15.84,0,0,1,88.94,152.84Z" style="fill:#fff"/></g></g></svg>